<?xml version="1.0" encoding="UTF-8" standalone="no"?>
<!-- Created with Inkscape (http://www.inkscape.org/) -->

<svg
   width="160mm"
   height="50mm"
   viewBox="0 0 160 50"
   version="1.1"
   id="svg5"
   xml:space="preserve"
   xmlns="http://www.w3.org/2000/svg"
   xmlns:svg="http://www.w3.org/2000/svg"><defs
     id="defs2"><marker
       style="overflow:visible"
       id="Arrow1"
       refX="0"
       refY="0"
       orient="auto-start-reverse"
       markerWidth="4.0606599"
       markerHeight="6.7071061"
       viewBox="0 0 4.0606602 6.7071068"
       preserveAspectRatio="xMidYMid"><path
         style="fill:none;stroke:context-stroke;stroke-width:1;stroke-linecap:butt"
         d="M 3,-3 0,0 3,3"
         id="path5057"
         transform="rotate(180,0.125,0)" /></marker><filter
       id="selectable_hidder_filter"
       width="1.0284488"
       height="1.0284728"
       x="-0.01422439"
       y="-0.014236404"
       style="color-interpolation-filters:sRGB"><feComposite
         id="boolops_hidder_primitive"
         result="composite1"
         operator="arithmetic"
         in2="SourceGraphic"
         in="BackgroundImage"
         k1="0"
         k2="0"
         k3="0"
         k4="0" /></filter><marker
       style="overflow:visible"
       id="Arrow1-0"
       refX="0"
       refY="0"
       orient="auto-start-reverse"
       markerWidth="4.0606599"
       markerHeight="6.7071066"
       viewBox="0 0 4.0606602 6.7071068"
       preserveAspectRatio="xMidYMid"><path
         style="fill:none;stroke:context-stroke;stroke-width:1;stroke-linecap:butt"
         d="M 3,-3 0,0 3,3"
         id="path5057-2"
         transform="rotate(180,0.125,0)" /></marker><marker
       style="overflow:visible"
       id="Arrow1-0-7"
       refX="0"
       refY="0"
       orient="auto-start-reverse"
       markerWidth="4.0606599"
       markerHeight="6.7071066"
       viewBox="0 0 4.0606602 6.7071068"
       preserveAspectRatio="xMidYMid"><path
         style="fill:none;stroke:context-stroke;stroke-width:1;stroke-linecap:butt"
         d="M 3,-3 0,0 3,3"
         id="path5057-2-5"
         transform="rotate(180,0.125,0)" /></marker><marker
       style="overflow:visible"
       id="Arrow1-0-9"
       refX="0"
       refY="0"
       orient="auto-start-reverse"
       markerWidth="4.0606599"
       markerHeight="6.7071066"
       viewBox="0 0 4.0606602 6.7071068"
       preserveAspectRatio="xMidYMid"><path
         style="fill:none;stroke:context-stroke;stroke-width:1;stroke-linecap:butt"
         d="M 3,-3 0,0 3,3"
         id="path5057-2-7"
         transform="rotate(180,0.125,0)" /></marker><clipPath
       id="clipPath3445">
      <path
   clip-rule="nonzero"
   d="m 7,1 h 3 V 6.027344 H 7 Z m 0,0"
   id="path376" />
    </clipPath><clipPath
       id="clipPath8163">
      <path
   clip-rule="nonzero"
   d="m 6,1 h 4.90625 V 6.027344 H 6 Z m 0,0"
   id="path398" />
    </clipPath><clipPath
       id="clipPath2807">
      <path
   clip-rule="nonzero"
   d="m 7,3 h 3 V 8.402344 H 7 Z m 0,0"
   id="path3230" />
    </clipPath><clipPath
       id="clipPath9479">
      <path
   clip-rule="nonzero"
   d="m 24,4 h 4 v 4.402344 h -4 z m 0,0"
   id="path1012" />
    </clipPath><clipPath
       id="clipPath2756">
      <path
   clip-rule="nonzero"
   d="m 6,3 h 5 V 8.402344 H 6 Z m 0,0"
   id="path4431" />
    </clipPath><clipPath
       id="clipPath9242">
      <path
   clip-rule="nonzero"
   d="m 24,4 h 4 v 4.402344 h -4 z m 0,0"
   id="path7095" />
    </clipPath></defs><g
     id="layer1"><ellipse
       style="fill:none;stroke:#000000;stroke-width:0.229229;stroke-linecap:round;stroke-linejoin:round;stroke-dasharray:none"
       id="path4020"
       class="UnoptimicedTransforms"
       ry="4.3693786"
       rx="6.3633966"
       cy="36.091152"
       cx="51.702393"
       transform="matrix(1.3630562,-0.7145065,0.7145065,1.3630562,-72.312318,1.4534263)" /><ellipse
       style="fill:none;stroke:#000000;stroke-width:0.229229;stroke-linecap:round;stroke-linejoin:round;stroke-dasharray:none"
       id="path4020-6"
       cx="74.16185"
       cy="32.890675"
       rx="6.4764814"
       ry="6.4710159"
       transform="matrix(1.5389743,0,0,1.5389743,-65.047463,-40.659176)"
       class="UnoptimicedTransforms" /><ellipse
       style="fill:none;stroke:#000000;stroke-width:0.368496;stroke-linecap:round;stroke-linejoin:round;stroke-dasharray:none"
       id="path4020-6-7"
       transform="matrix(0.98466778,-0.38612229,0.31634545,0.80672672,-5.4928863,36.638815)"
       class="UnoptimicedTransforms"
       ry="6.4710159"
       rx="6.4764814"
       cy="32.890675"
       cx="74.16185" /><path
       style="display:inline;fill:none;stroke:#000000;stroke-width:0.229229;stroke-linecap:round;stroke-linejoin:round;stroke-dasharray:none"
       id="path4102"
       d="M 85.845935,47.373574 C 83.353447,42.779139 79.462851,39.053597 74.74496,36.767333 c -0.855192,2.574176 -3.284179,4.430458 -6.14756,4.430458 -3.576863,0 -6.476259,-2.89734 -6.476259,-6.471184 0,-0.131233 0.0037,-0.261586 0.01142,-0.390885 -1.35406,0.09212 -2.67819,0.292056 -3.964695,0.591404 0.486654,2.05923 -1.098532,4.648554 -3.875857,6.104411 -2.77502,1.454651 -5.803035,1.286423 -7.221226,-0.281742 -5.045741,4.573731 -8.214937,11.179664 -8.214937,18.526442 h 50.000327 c 0,-1.736581 -0.177072,-3.431776 -0.514145,-5.068524 -2.188806,0.70005 -4.443141,-0.103307 -5.14227,-1.886189 -0.716507,-1.827196 0.464139,-4.008806 2.646175,-4.94795 z"
       class="UnoptimicedTransforms"
       transform="matrix(1.5389743,0,0,1.5389743,-56.483698,-43.484372)" /><path
       style="fill:none;stroke:#000000;stroke-width:0.114615;stroke-linecap:round;stroke-linejoin:round;stroke-dasharray:0.114615, 0.229229;stroke-dashoffset:0"
       d="M 52.263389,37.161358 63.856208,59.276847 68.597257,34.726441"
       id="path6051"
       class="UnoptimicedTransforms"
       transform="matrix(1.5389743,0,0,1.5389743,-56.483698,-43.484372)" /><path
       style="fill:none;stroke:#000000;stroke-width:0.114615;stroke-linecap:round;stroke-linejoin:round;stroke-dasharray:0.114615, 0.229229;stroke-dashoffset:0"
       d="M 63.856208,59.276847 87.344155,50.697033"
       id="path6053"
       class="UnoptimicedTransforms"
       transform="matrix(1.5389743,0,0,1.5389743,-56.483698,-43.484372)" /><rect
       style="fill:none;stroke:#000000;stroke-width:0.114615;stroke-linecap:round;stroke-linejoin:round;stroke-dasharray:0.114615, 0.229229;stroke-dashoffset:0"
       id="rect6115"
       width="50"
       height="25.000004"
       x="38.856209"
       y="59.276848"
       class="UnoptimicedTransforms"
       transform="matrix(1.5389743,0,0,1.5389743,-56.483698,-43.484372)" /><path
       style="display:inline;fill:none;stroke:#000000;stroke-width:0.114615;stroke-linecap:round;stroke-linejoin:round;stroke-dasharray:0.114615, 0.229229;stroke-dashoffset:0"
       id="path6200"
       d="m 63.856011,34.277343 c -13.807118,0 -25.000163,11.191776 -25.000163,24.998894 h 50.000327 c 0,-13.807118 -11.193045,-24.998894 -25.000164,-24.998894 z"
       class="UnoptimicedTransforms"
       transform="matrix(1.5389743,0,0,1.5389743,-56.483698,-43.484372)" /><rect
       style="fill:none;stroke:#000000;stroke-width:0.114615;stroke-linecap:round;stroke-linejoin:round;stroke-dasharray:0.114615, 0.229229;stroke-dashoffset:0"
       id="rect6202"
       width="50"
       height="25.000004"
       x="38.856209"
       y="59.276848"
       class="UnoptimicedTransforms"
       transform="matrix(1.5389743,0,0,1.5389743,-56.483698,-43.484372)" /><path
       style="fill:none;stroke:#000000;stroke-width:0.17639;stroke-linecap:round;stroke-linejoin:round;stroke-dasharray:none;stroke-dashoffset:0;marker-start:url(#Arrow1);marker-end:url(#Arrow1)"
       id="path6224"
       d="M 34.313613,32.703972 A 16.792988,16.792988 0 0 1 44.555855,31.177633" /><path
       style="fill:none;stroke:#000000;stroke-width:0.17639;stroke-linecap:round;stroke-linejoin:round;stroke-dasharray:none;stroke-dashoffset:0;marker-start:url(#Arrow1-0);marker-end:url(#Arrow1-0)"
       id="path6224-3"
       d="M 45.414342,31.344104 A 16.792988,16.792988 0 0 1 57.428656,41.624225" /><path
       style="fill:none;stroke:#000000;stroke-width:0.17639;stroke-linecap:round;stroke-linejoin:round;stroke-dasharray:none;stroke-dashoffset:0;marker-start:url(#Arrow1-0-9);marker-end:url(#Arrow1-0-9)"
       id="path6224-3-3"
       d="m 33.04664,47.217401 a 8.758729,8.6689863 0 0 1 3.209089,-6.19593 8.758729,8.6689863 0 0 1 6.778672,-1.861251" /><path
       style="fill:none;stroke:#000000;stroke-width:0.17639;stroke-linecap:round;stroke-linejoin:round;stroke-dasharray:none;stroke-dashoffset:0;marker-start:url(#Arrow1-0-7);marker-end:url(#Arrow1-0-7)"
       id="path6224-3-9"
       d="M 39.275195,6.2650007 A 41.552307,41.552307 0 0 1 59.604748,10.201778" /><path
       style="fill:#000000;fill-opacity:1;stroke:#000000;stroke-width:0.17639;stroke-linecap:round;stroke-linejoin:round;stroke-dasharray:none;stroke-dashoffset:0;marker-start:url(#Arrow1);marker-end:url(#Arrow1)"
       d="m 47.285887,19.278724 1.75324,-9.078739"
       id="path8529" /><path
       style="fill:none;fill-opacity:1;stroke:#ee6677;stroke-width:0.352778;stroke-linecap:round;stroke-linejoin:round;stroke-dasharray:none;stroke-dashoffset:0;stroke-opacity:1"
       d="M 118.79815,32.798158 135.30111,17.166002"
       id="path22371" /><path
       style="fill:#000000;fill-opacity:1;stroke:#000000;stroke-width:0.352778;stroke-linecap:round;stroke-linejoin:round;stroke-dasharray:none;stroke-dashoffset:0;stroke-opacity:1;marker-end:url(#Arrow1)"
       d="M 84.313896,32.036344 H 106.98158"
       id="path23203" /><g
       transform="matrix(1.5389743,0,0,1.5389743,49.155908,0.14282331)"
       id="g814"
       style="stroke-width:0.649783"><g
   fill="#000000"
   fill-opacity="1"
   id="g11"
   transform="matrix(0.352778,0,0,0.352778,-0.115755,-0.0183885)"
   style="stroke-width:0.422219">
    <g
   id="use9"
   transform="translate(0,6.849)"
   style="stroke-width:0.649783">
      <path
   d="m 2.046875,-5.34375 c 0.25,-0.46875 0.65625,-0.96875 0.84375,-0.96875 0.296875,0 0.328125,0.875 0.390625,1.75 v 0.125 c 0,0.03125 -0.015625,0.0625 -0.03125,0.09375 -0.8125,1.515625 -1.859375,2.953125 -2.921875,4.4375 L 1.140625,0 3.34375,-3.71875 3.484375,-1.140625 c 0.03125,0.65625 0.09375,1.25 0.703125,1.25 0.59375,0 1.125,-0.53125 1.453125,-1.3125 L 5.40625,-1.34375 C 5.171875,-0.859375 4.8125,-0.375 4.609375,-0.375 4.25,-0.375 4.265625,-1.140625 4.21875,-2.09375 L 4.046875,-5.546875 c -0.015625,-0.53125 -0.28125,-1.25 -0.75,-1.25 -0.671875,0 -1.140625,0.546875 -1.46875,1.328125 z m 0,0"
   id="path17"
   style="stroke-width:0.649783" />
    </g>
  </g>
</g><g
       transform="matrix(1.5389743,0,0,1.5389743,49.700819,13.401622)"
       id="g1034"
       style="stroke-width:0.649783"><g
   fill="#000000"
   fill-opacity="1"
   id="g1032"
   transform="matrix(0.352778,0,0,0.352778,-0.104731,0.0146844)"
   style="stroke-width:0.422219">
    <g
   id="g1030"
   transform="translate(0,6.849)"
   style="stroke-width:0.649783">
      <path
   d="m 2.546875,-4.546875 c -1.28125,0.359375 -2.25,1.71875 -2.25,3 0,0.890625 0.484375,1.640625 1.640625,1.65625 h 0.015625 c 1.484375,0 2.5,-1.5 2.5,-2.828125 0,-0.5625 -0.15625,-1.109375 -0.484375,-1.484375 -0.578125,-0.65625 -1.703125,-1.28125 -1.703125,-1.671875 0,-0.3125 0.390625,-0.546875 0.71875,-0.546875 0.859375,0 1,0.4375 1.40625,0.828125 0,0.015625 0.015625,0.015625 0.046875,0.015625 0.1875,0 0.6875,-0.234375 0.6875,-0.390625 0,-0.015625 0,-0.046875 -0.03125,-0.0625 -0.703125,-0.59375 -1.109375,-0.859375 -1.6875,-0.859375 -0.78125,0 -1.703125,0.578125 -1.703125,1.296875 0,0.234375 0.140625,0.546875 0.84375,1.046875 z M 2.0625,-0.21875 c -0.625,0 -0.921875,-0.546875 -0.921875,-1.265625 0,-1.078125 0.609375,-2.21875 1.53125,-2.765625 0.03125,-0.015625 0.0625,-0.03125 0.09375,-0.03125 0.125,0 0.265625,0.140625 0.296875,0.171875 0.40625,0.421875 0.5625,0.890625 0.5625,1.40625 0,1.03125 -0.703125,2.484375 -1.5625,2.484375 z m 0,0"
   id="path1028"
   style="stroke-width:0.649783" />
    </g>
  </g>
</g><g
       transform="matrix(1.5389743,0,0,1.5389743,36.508895,27.059647)"
       id="g1363"
       style="stroke-width:0.649783"><g
   fill="#000000"
   fill-opacity="1"
   id="g17"
   transform="matrix(0.352778,0,0,0.352778,-0.0992187,0.0269434)"
   style="stroke-width:0.422219">
    <g
   id="use15"
   transform="translate(0,4.533)"
   style="stroke-width:0.649783">
      <path
   d="m 5.09375,-4.5 c 0.21875,0.328125 0.296875,0.78125 0.296875,1.25 0,0.75 -0.265625,2.96875 -1.453125,2.96875 -0.484375,0 -0.625,-0.40625 -0.625,-0.8125 0,-0.796875 0.640625,-1.34375 0.640625,-2.015625 0,-0.21875 -0.078125,-0.421875 -0.359375,-0.421875 -0.5,0 -0.65625,0.578125 -0.65625,0.921875 0,0.21875 0.03125,0.4375 0.03125,0.703125 0,0.65625 -0.421875,1.59375 -1.1875,1.59375 -0.453125,0 -0.578125,-0.421875 -0.578125,-0.890625 0,-1.203125 0.375,-2.28125 1.296875,-3.296875 L 2.328125,-4.609375 c -1.40625,0.75 -2.046875,2.015625 -2.046875,3.375 0,0.828125 0.375,1.328125 1.3125,1.328125 0.6875,0 1.0625,-0.4375 1.421875,-0.953125 C 3.03125,-0.34375 3.25,0.09375 3.96875,0.09375 5.03125,0.09375 6.25,-1.125 6.25,-2.828125 6.25,-3.609375 5.890625,-4.25 5.3125,-4.609375 Z m 0,0"
   id="path29"
   style="stroke-width:0.649783" />
    </g>
  </g>
  <g
   clip-path="url(#clipPath3445)"
   id="g23"
   transform="matrix(0.352778,0,0,0.352778,-0.0992187,0.0269434)"
   style="stroke-width:0.649783">
    <g
   fill="#000000"
   fill-opacity="1"
   id="g21"
   style="stroke-width:0.422219">
      <g
   id="use19"
   transform="translate(6.7150002,6.027)"
   style="stroke-width:0.649783">
        <path
   d="M 3.046875,0 V -0.203125 L 2.453125,-0.25 C 2.3125,-0.265625 2.234375,-0.328125 2.234375,-0.59375 V -4.703125 L 2.1875,-4.734375 0.765625,-4.5 v 0.171875 L 1.40625,-4.25 c 0.125,0.015625 0.171875,0.078125 0.171875,0.28125 v 3.375 c 0,0.140625 -0.03125,0.21875 -0.0625,0.265625 C 1.484375,-0.28125 1.421875,-0.265625 1.34375,-0.25 L 0.765625,-0.203125 V 0 Z m 0,0"
   id="path33"
   style="stroke-width:0.649783" />
      </g>
    </g>
  </g>
</g><g
       transform="matrix(1.5389743,0,0,1.5389743,53.149442,31.392509)"
       id="g1623"
       style="stroke-width:0.649783"><g
   fill="#000000"
   fill-opacity="1"
   id="g1613"
   transform="matrix(0.352778,0,0,0.352778,-0.0992187,0.0269434)"
   style="stroke-width:0.422219">
    <g
   id="g1611"
   transform="translate(0,4.533)"
   style="stroke-width:0.649783">
      <path
   d="m 5.09375,-4.5 c 0.21875,0.328125 0.296875,0.78125 0.296875,1.25 0,0.75 -0.265625,2.96875 -1.453125,2.96875 -0.484375,0 -0.625,-0.40625 -0.625,-0.8125 0,-0.796875 0.640625,-1.34375 0.640625,-2.015625 0,-0.21875 -0.078125,-0.421875 -0.359375,-0.421875 -0.5,0 -0.65625,0.578125 -0.65625,0.921875 0,0.21875 0.03125,0.4375 0.03125,0.703125 0,0.65625 -0.421875,1.59375 -1.1875,1.59375 -0.453125,0 -0.578125,-0.421875 -0.578125,-0.890625 0,-1.203125 0.375,-2.28125 1.296875,-3.296875 L 2.328125,-4.609375 c -1.40625,0.75 -2.046875,2.015625 -2.046875,3.375 0,0.828125 0.375,1.328125 1.3125,1.328125 0.6875,0 1.0625,-0.4375 1.421875,-0.953125 C 3.03125,-0.34375 3.25,0.09375 3.96875,0.09375 5.03125,0.09375 6.25,-1.125 6.25,-2.828125 6.25,-3.609375 5.890625,-4.25 5.3125,-4.609375 Z m 0,0"
   id="path1609"
   style="stroke-width:0.649783" />
    </g>
  </g>
  <g
   clip-path="url(#clipPath8163)"
   id="g1621"
   transform="matrix(0.352778,0,0,0.352778,-0.0992187,0.0269434)"
   style="stroke-width:0.649783">
    <g
   fill="#000000"
   fill-opacity="1"
   id="g1619"
   style="stroke-width:0.422219">
      <g
   id="g1617"
   transform="translate(6.7150002,6.027)"
   style="stroke-width:0.649783">
        <path
   d="M 3.375,-0.921875 3.1875,-0.953125 C 3.03125,-0.578125 2.90625,-0.53125 2.625,-0.53125 H 0.84375 C 0.953125,-0.890625 1.359375,-1.390625 2,-1.859375 2.671875,-2.34375 3.1875,-2.65625 3.1875,-3.4375 c 0,-0.96875 -0.640625,-1.296875 -1.375,-1.296875 -0.953125,0 -1.4375,0.578125 -1.4375,0.9375 0,0.234375 0.265625,0.34375 0.375,0.34375 0.125,0 0.171875,-0.0625 0.203125,-0.1875 C 1.0625,-4.109375 1.34375,-4.5 1.765625,-4.5 c 0.546875,0 0.6875,0.453125 0.6875,0.96875 0,0.75 -0.375,1.15625 -0.96875,1.703125 C 0.625,-1.09375 0.328125,-0.609375 0.1875,-0.0625 L 0.265625,0 h 2.875 z m 0,0"
   id="path1615"
   style="stroke-width:0.649783" />
      </g>
    </g>
  </g>
</g><g
       transform="matrix(1.5389743,0,0,1.5389743,87.571377,26.680016)"
       id="g2475"
       style="stroke-width:0.649783"><g
   fill="#000000"
   fill-opacity="1"
   id="g29"
   transform="matrix(0.352778,0,0,0.352778,-0.0992187,-0.0128764)"
   style="stroke-width:0.422219">
    <g
   id="use27"
   transform="translate(0,6.849)"
   style="stroke-width:0.649783">
      <path
   d="m 5.09375,-4.5 c 0.21875,0.328125 0.296875,0.78125 0.296875,1.25 0,0.75 -0.265625,2.96875 -1.453125,2.96875 -0.484375,0 -0.625,-0.40625 -0.625,-0.8125 0,-0.796875 0.640625,-1.34375 0.640625,-2.015625 0,-0.21875 -0.078125,-0.421875 -0.359375,-0.421875 -0.5,0 -0.65625,0.578125 -0.65625,0.921875 0,0.21875 0.03125,0.4375 0.03125,0.703125 0,0.65625 -0.421875,1.59375 -1.1875,1.59375 -0.453125,0 -0.578125,-0.421875 -0.578125,-0.890625 0,-1.203125 0.375,-2.28125 1.296875,-3.296875 L 2.328125,-4.609375 c -1.40625,0.75 -2.046875,2.015625 -2.046875,3.375 0,0.828125 0.375,1.328125 1.3125,1.328125 0.6875,0 1.0625,-0.4375 1.421875,-0.953125 C 3.03125,-0.34375 3.25,0.09375 3.96875,0.09375 5.03125,0.09375 6.25,-1.125 6.25,-2.828125 6.25,-3.609375 5.890625,-4.25 5.3125,-4.609375 Z m 0,0"
   id="path55"
   style="stroke-width:0.649783" />
    </g>
  </g>
  <g
   clip-path="url(#clipPath2807)"
   id="g2461"
   transform="matrix(0.352778,0,0,0.352778,-0.0992187,-0.0128764)"
   style="stroke-width:0.649783">
    <g
   fill="#000000"
   fill-opacity="1"
   id="g33"
   style="stroke-width:0.422219">
      <g
   id="use31"
   transform="translate(6.7150002,8.3430004)"
   style="stroke-width:0.649783">
        <path
   d="M 3.046875,0 V -0.203125 L 2.453125,-0.25 C 2.3125,-0.265625 2.234375,-0.328125 2.234375,-0.59375 V -4.703125 L 2.1875,-4.734375 0.765625,-4.5 v 0.171875 L 1.40625,-4.25 c 0.125,0.015625 0.171875,0.078125 0.171875,0.28125 v 3.375 c 0,0.140625 -0.03125,0.21875 -0.0625,0.265625 C 1.484375,-0.28125 1.421875,-0.265625 1.34375,-0.25 L 0.765625,-0.203125 V 0 Z m 0,0"
   id="path59"
   style="stroke-width:0.649783" />
      </g>
    </g>
  </g>
  <g
   fill="#000000"
   fill-opacity="1"
   id="g2466"
   transform="matrix(0.352778,0,0,0.352778,-0.0992187,-0.0128764)"
   style="stroke-width:0.422219">
    <g
   id="g2464"
   transform="translate(12.613,6.849)"
   style="stroke-width:0.649783">
      <path
   d="M 5.828125,-0.6875 1.59375,-2.59375 5.828125,-4.484375 V -5.0625 L 0.78125,-2.90625 v 0.640625 l 5.046875,2.15625 z m 0,0"
   id="path63"
   style="stroke-width:0.649783" />
    </g>
  </g>
  <g
   fill="#000000"
   fill-opacity="1"
   id="g43"
   transform="matrix(0.352778,0,0,0.352778,-0.0992187,-0.0128764)"
   style="stroke-width:0.422219">
    <g
   id="use41"
   transform="translate(20.917034,6.849)"
   style="stroke-width:0.649783">
      <path
   d="m 1.671875,-6.578125 -0.0625,0.203125 0.53125,0.0625 c 0.21875,0.03125 0.265625,0.09375 0.1875,0.453125 L 1.0625,-0.78125 c -0.125,0.515625 -0.015625,0.890625 0.484375,0.890625 0.640625,0 1.203125,-0.625 1.484375,-1.3125 L 2.8125,-1.34375 c -0.203125,0.421875 -0.625,0.984375 -0.84375,0.984375 -0.15625,0 -0.15625,-0.203125 -0.09375,-0.5 L 3.359375,-6.765625 3.3125,-6.8125 Z m 0,0"
   id="path67"
   style="stroke-width:0.649783" />
    </g>
  </g>
  <g
   clip-path="url(#clipPath9479)"
   id="g49"
   transform="matrix(0.352778,0,0,0.352778,-0.0992187,-0.0128764)"
   style="stroke-width:0.649783">
    <g
   fill="#000000"
   fill-opacity="1"
   id="g47"
   style="stroke-width:0.422219">
      <g
   id="use45"
   transform="translate(24.219999,8.3430004)"
   style="stroke-width:0.649783">
        <path
   d="M 2.984375,-1.078125 C 2.75,-0.75 2.328125,-0.265625 1.875,-0.265625 c -0.515625,0 -0.625,-0.40625 -0.625,-0.90625 0,-0.90625 0.53125,-2.078125 1.171875,-2.078125 0.21875,0 0.375,0.140625 0.421875,0.546875 0,0.125 0.0625,0.21875 0.1875,0.21875 0.171875,0 0.453125,-0.15625 0.453125,-0.390625 0,-0.359375 -0.375,-0.625 -0.90625,-0.625 -1.234375,0 -2.015625,1.328125 -2.015625,2.46875 0,0.84375 0.515625,1.109375 1,1.109375 0.515625,0 1.109375,-0.21875 1.59375,-1.015625 z m 0,0"
   id="path71"
   style="stroke-width:0.649783" />
      </g>
    </g>
  </g>
</g><g
       transform="matrix(1.5389743,0,0,1.5389743,87.791937,32.723472)"
       id="g2849"
       style="stroke-width:0.649783"><g
   fill="#000000"
   fill-opacity="1"
   id="g2819"
   transform="matrix(0.352778,0,0,0.352778,-0.0992187,-0.0128764)"
   style="stroke-width:0.422219">
    <g
   id="g2817"
   transform="translate(0,6.849)"
   style="stroke-width:0.649783">
      <path
   d="m 5.09375,-4.5 c 0.21875,0.328125 0.296875,0.78125 0.296875,1.25 0,0.75 -0.265625,2.96875 -1.453125,2.96875 -0.484375,0 -0.625,-0.40625 -0.625,-0.8125 0,-0.796875 0.640625,-1.34375 0.640625,-2.015625 0,-0.21875 -0.078125,-0.421875 -0.359375,-0.421875 -0.5,0 -0.65625,0.578125 -0.65625,0.921875 0,0.21875 0.03125,0.4375 0.03125,0.703125 0,0.65625 -0.421875,1.59375 -1.1875,1.59375 -0.453125,0 -0.578125,-0.421875 -0.578125,-0.890625 0,-1.203125 0.375,-2.28125 1.296875,-3.296875 L 2.328125,-4.609375 c -1.40625,0.75 -2.046875,2.015625 -2.046875,3.375 0,0.828125 0.375,1.328125 1.3125,1.328125 0.6875,0 1.0625,-0.4375 1.421875,-0.953125 C 3.03125,-0.34375 3.25,0.09375 3.96875,0.09375 5.03125,0.09375 6.25,-1.125 6.25,-2.828125 6.25,-3.609375 5.890625,-4.25 5.3125,-4.609375 Z m 0,0"
   id="path2815"
   style="stroke-width:0.649783" />
    </g>
  </g>
  <g
   clip-path="url(#clipPath2756)"
   id="g2827"
   transform="matrix(0.352778,0,0,0.352778,-0.0992187,-0.0128764)"
   style="stroke-width:0.649783">
    <g
   fill="#000000"
   fill-opacity="1"
   id="g2825"
   style="stroke-width:0.422219">
      <g
   id="g2823"
   transform="translate(6.7150002,8.3430004)"
   style="stroke-width:0.649783">
        <path
   d="M 3.375,-0.921875 3.1875,-0.953125 C 3.03125,-0.578125 2.90625,-0.53125 2.625,-0.53125 H 0.84375 C 0.953125,-0.890625 1.359375,-1.390625 2,-1.859375 2.671875,-2.34375 3.1875,-2.65625 3.1875,-3.4375 c 0,-0.96875 -0.640625,-1.296875 -1.375,-1.296875 -0.953125,0 -1.4375,0.578125 -1.4375,0.9375 0,0.234375 0.265625,0.34375 0.375,0.34375 0.125,0 0.171875,-0.0625 0.203125,-0.1875 C 1.0625,-4.109375 1.34375,-4.5 1.765625,-4.5 c 0.546875,0 0.6875,0.453125 0.6875,0.96875 0,0.75 -0.375,1.15625 -0.96875,1.703125 C 0.625,-1.09375 0.328125,-0.609375 0.1875,-0.0625 L 0.265625,0 h 2.875 z m 0,0"
   id="path2821"
   style="stroke-width:0.649783" />
      </g>
    </g>
  </g>
  <g
   fill="#000000"
   fill-opacity="1"
   id="g2833"
   transform="matrix(0.352778,0,0,0.352778,-0.0992187,-0.0128764)"
   style="stroke-width:0.422219">
    <g
   id="g2831"
   transform="translate(12.613,6.849)"
   style="stroke-width:0.649783">
      <path
   d="m 0.78125,-0.109375 5.046875,-2.15625 V -2.90625 L 0.78125,-5.0625 v 0.578125 L 5.015625,-2.59375 0.78125,-0.6875 Z m 0,0"
   id="path2829"
   style="stroke-width:0.649783" />
    </g>
  </g>
  <g
   fill="#000000"
   fill-opacity="1"
   id="g2839"
   transform="matrix(0.352778,0,0,0.352778,-0.0992187,-0.0128764)"
   style="stroke-width:0.422219">
    <g
   id="g2837"
   transform="translate(20.917034,6.849)"
   style="stroke-width:0.649783">
      <path
   d="m 1.671875,-6.578125 -0.0625,0.203125 0.53125,0.0625 c 0.21875,0.03125 0.265625,0.09375 0.1875,0.453125 L 1.0625,-0.78125 c -0.125,0.515625 -0.015625,0.890625 0.484375,0.890625 0.640625,0 1.203125,-0.625 1.484375,-1.3125 L 2.8125,-1.34375 c -0.203125,0.421875 -0.625,0.984375 -0.84375,0.984375 -0.15625,0 -0.15625,-0.203125 -0.09375,-0.5 L 3.359375,-6.765625 3.3125,-6.8125 Z m 0,0"
   id="path2835"
   style="stroke-width:0.649783" />
    </g>
  </g>
  <g
   clip-path="url(#clipPath9242)"
   id="g2847"
   transform="matrix(0.352778,0,0,0.352778,-0.0992187,-0.0128764)"
   style="stroke-width:0.649783">
    <g
   fill="#000000"
   fill-opacity="1"
   id="g2845"
   style="stroke-width:0.422219">
      <g
   id="g2843"
   transform="translate(24.219999,8.3430004)"
   style="stroke-width:0.649783">
        <path
   d="M 2.984375,-1.078125 C 2.75,-0.75 2.328125,-0.265625 1.875,-0.265625 c -0.515625,0 -0.625,-0.40625 -0.625,-0.90625 0,-0.90625 0.53125,-2.078125 1.171875,-2.078125 0.21875,0 0.375,0.140625 0.421875,0.546875 0,0.125 0.0625,0.21875 0.1875,0.21875 0.171875,0 0.453125,-0.15625 0.453125,-0.390625 0,-0.359375 -0.375,-0.625 -0.90625,-0.625 -1.234375,0 -2.015625,1.328125 -2.015625,2.46875 0,0.84375 0.515625,1.109375 1,1.109375 0.515625,0 1.109375,-0.21875 1.59375,-1.015625 z m 0,0"
   id="path2841"
   style="stroke-width:0.649783" />
      </g>
    </g>
  </g>
</g></g><g
     id="layer2"><circle
       style="fill:#4477aa;fill-opacity:1;stroke:#010000;stroke-width:0.352778;stroke-linecap:round;stroke-linejoin:round;stroke-dasharray:none;stroke-dashoffset:0;stroke-opacity:1"
       id="path17434"
       cx="118.79816"
       cy="32.798157"
       r="3.0779486" /><circle
       style="fill:#4477aa;fill-opacity:1;stroke:#010000;stroke-width:0.352778;stroke-linecap:round;stroke-linejoin:round;stroke-dasharray:none;stroke-dashoffset:0;stroke-opacity:1"
       id="path17434-6"
       cx="135.30113"
       cy="17.166004"
       r="3.0779486" /><circle
       style="fill:#4477aa;fill-opacity:1;stroke:#010000;stroke-width:0.352778;stroke-linecap:round;stroke-linejoin:round;stroke-dasharray:none;stroke-dashoffset:0;stroke-opacity:1"
       id="path17434-6-1"
       cx="154.64551"
       cy="32.139732"
       r="3.0779486" /><g
       transform="matrix(1.5389743,0,0,1.5389743,117.65374,37.886867)"
       id="g5404"
       style="fill:#4477aa;fill-opacity:1;stroke-width:0.649783"><g
   fill="#000000"
   fill-opacity="1"
   id="g38"
   transform="matrix(0.352778,0,0,0.352778,-0.115755,-0.0247385)"
   style="fill:#4477aa;fill-opacity:1;stroke-width:0.649783">
    <g
   id="use36"
   transform="translate(0,8.0799999)"
   style="fill:#4477aa;fill-opacity:1;stroke-width:0.649783">
      <path
   d="M 3.609375,-6.078125 C 3.4375,-5.03125 2.515625,-0.25 2.515625,-0.25 1.5625,-0.3125 1.203125,-0.875 1.203125,-1.625 1.203125,-2.671875 1.75,-3.9375 2.59375,-4.296875 L 2.484375,-4.46875 c -1.359375,0.28125 -2.15625,1.484375 -2.15625,2.625 0,1.125 0.984375,1.921875 2.109375,1.953125 0.015625,0 -0.34375,1.90625 -0.34375,2.03125 C 2.109375,2.203125 2.125,2.21875 2.25,2.21875 c 0.15625,0 0.1875,-0.015625 0.203125,-0.0625 C 2.5,2.09375 2.859375,0.6875 3,0.109375 4.5625,0.078125 6.125,-1.25 6.125,-2.8125 c 0,-1.359375 -1.34375,-1.796875 -2,-1.796875 L 4.5625,-6.34375 c -0.09375,0 -0.9375,0.234375 -0.953125,0.265625 z m 1.53125,3.78125 c -0.25,1.15625 -0.8125,1.984375 -2.0625,2.046875 l 0.953125,-4 c 0.71875,0 1.1875,0.515625 1.1875,1.359375 0,0.171875 -0.015625,0.375 -0.0625,0.578125 z m 0,0"
   id="path88"
   style="fill:#4477aa;fill-opacity:1;stroke-width:0.649783" />
    </g>
  </g>
  <g
   fill="#000000"
   fill-opacity="1"
   id="g42"
   transform="matrix(0.352778,0,0,0.352778,-0.115755,-0.0247385)"
   style="fill:#4477aa;fill-opacity:1;stroke-width:0.649783">
    <g
   id="use40"
   transform="translate(6.5079999,4.4629998)"
   style="fill:#4477aa;fill-opacity:1;stroke-width:0.649783">
      <path
   d="m 0.875,-3.296875 -0.046875,0.15625 0.4375,0.046875 c 0.15625,0 0.15625,0.09375 0.09375,0.328125 l -0.421875,1.9375 c -0.140625,0.640625 0.09375,0.90625 0.484375,0.90625 0.59375,0 1.203125,-0.546875 1.6875,-1.203125 0.46875,-0.640625 0.8125,-1.390625 0.8125,-1.828125 0,-0.265625 -0.15625,-0.546875 -0.21875,-0.546875 -0.15625,0 -0.359375,0.0625 -0.5,0.140625 0.0625,0.25 0.078125,0.515625 0.078125,0.875 -0.0625,0.953125 -0.953125,2.21875 -1.53125,2.203125 -0.171875,0 -0.296875,-0.15625 -0.21875,-0.484375 L 2.140625,-3.46875 2.109375,-3.5 Z m 0,0"
   id="path92"
   style="fill:#4477aa;fill-opacity:1;stroke-width:0.649783" />
    </g>
  </g>
  <g
   fill="#000000"
   fill-opacity="1"
   id="g46"
   transform="matrix(0.352778,0,0,0.352778,-0.115755,-0.0247385)"
   style="fill:#4477aa;fill-opacity:1;stroke-width:0.649783">
    <g
   id="use44"
   transform="translate(12.92,8.0799999)"
   style="fill:#4477aa;fill-opacity:1;stroke-width:0.649783">
      <path
   d="M 5.828125,-1.3125 V -1.84375 H 0.78125 v 0.53125 z m 0,-2.015625 v -0.53125 H 0.78125 v 0.53125 z m 0,0"
   id="path96"
   style="fill:#4477aa;fill-opacity:1;stroke-width:0.649783" />
    </g>
  </g>
  <g
   fill="#000000"
   fill-opacity="1"
   id="g50"
   transform="matrix(0.352778,0,0,0.352778,-0.115755,-0.0247385)"
   style="fill:#4477aa;fill-opacity:1;stroke-width:0.649783">
    <g
   id="use48"
   transform="translate(21.219999,0.36700001)"
   style="fill:#4477aa;fill-opacity:1;stroke-width:0.649783">
      <path
   d="M 1.484375,10.53125 H 3.09375 v -0.265625 c -0.875,-0.04687 -1.015625,-0.09375 -1.015625,-1.1875 V 1.1875 C 2.078125,0.03125 2.21875,0.046875 3.09375,0 V -0.28125 H 1.484375 Z m 0,0"
   id="path100"
   style="fill:#4477aa;fill-opacity:1;stroke-width:0.649783" />
    </g>
  </g>
  <g
   fill="#000000"
   fill-opacity="1"
   id="g54"
   transform="matrix(0.352778,0,0,0.352778,-0.115755,-0.0247385)"
   style="fill:#4477aa;fill-opacity:1;stroke-width:0.649783">
    <g
   id="use52"
   transform="translate(25.039,8.0799999)"
   style="fill:#4477aa;fill-opacity:1;stroke-width:0.649783">
      <path
   d="m 4.578125,-3.34375 c 0.109375,-0.53125 0.1875,-1.09375 0.1875,-1.609375 0,-1.015625 -0.328125,-1.859375 -1.46875,-1.859375 -2.203125,0 -3,3.28125 -3,5.109375 0,1.046875 0.359375,1.828125 1.484375,1.828125 1.6875,0 2.40625,-1.703125 2.796875,-3.46875 z M 3.734375,-3.609375 H 1.453125 C 1.609375,-4.390625 2.125,-6.5 3.21875,-6.5 c 0.578125,0 0.75,0.5625 0.75,1.21875 0,0.609375 -0.140625,1.28125 -0.234375,1.671875 z m -0.0625,0.328125 c -0.234375,1.078125 -0.75,3.125 -1.828125,3.125 -0.5625,0 -0.71875,-0.546875 -0.71875,-1.21875 0,-0.640625 0.140625,-1.390625 0.25,-1.90625 z m 0,0"
   id="path104"
   style="fill:#4477aa;fill-opacity:1;stroke-width:0.649783" />
    </g>
  </g>
  <g
   fill="#000000"
   fill-opacity="1"
   id="g58"
   transform="matrix(0.352778,0,0,0.352778,-0.115755,-0.0247385)"
   style="fill:#4477aa;fill-opacity:1;stroke-width:0.649783">
    <g
   id="use56"
   transform="translate(30.428373,8.0799999)"
   style="fill:#4477aa;fill-opacity:1;stroke-width:0.649783">
      <path
   d="m 0.640625,1.296875 c 0.453125,-0.4375 1.125,-1.046875 1.125,-1.765625 0,-0.5 -0.296875,-0.828125 -0.625,-0.828125 -0.28125,0 -0.4375,0.21875 -0.4375,0.46875 C 0.703125,-0.5 1,-0.34375 1,0.0625 1,0.4375 0.765625,0.796875 0.46875,1.125 Z m 0,0"
   id="path108"
   style="fill:#4477aa;fill-opacity:1;stroke-width:0.649783" />
    </g>
  </g>
  <g
   fill="#000000"
   fill-opacity="1"
   id="g62"
   transform="matrix(0.352778,0,0,0.352778,-0.115755,-0.0247385)"
   style="fill:#4477aa;fill-opacity:1;stroke-width:0.649783">
    <g
   id="use60"
   transform="translate(33.837975,8.0799999)"
   style="fill:#4477aa;fill-opacity:1;stroke-width:0.649783">
      <path
   d="M 2.75,1.96875 3.15625,0.109375 c 1.796875,-0.09375 3.046875,-1.625 3.046875,-3.25 0,-1.15625 -0.703125,-1.46875 -1.53125,-1.46875 -0.78125,0 -1.5,0.921875 -1.734375,1.9375 C 2.75,-1.828125 2.546875,-0.9375 2.40625,-0.25 1.53125,-0.3125 1.25,-0.78125 1.25,-1.453125 1.25,-2.4375 1.53125,-3.4375 2.3125,-4.328125 L 2.328125,-4.3125 c 0,-0.078125 -0.046875,-0.203125 -0.09375,-0.203125 H 2.21875 c -1.28125,0.6875 -1.828125,1.59375 -1.828125,2.734375 0,1.078125 0.84375,1.828125 1.9375,1.890625 L 1.875,2.21875 Z m 0.46875,-2.1875 0.5625,-2.609375 c 0.140625,-0.59375 0.421875,-1.453125 0.984375,-1.453125 0.4375,0 0.546875,0.484375 0.546875,1 0,1.390625 -0.546875,3.03125 -2.09375,3.0625 z m 0,0"
   id="path112"
   style="fill:#4477aa;fill-opacity:1;stroke-width:0.649783" />
    </g>
  </g>
  <g
   fill="#000000"
   fill-opacity="1"
   id="g66"
   transform="matrix(0.352778,0,0,0.352778,-0.115755,-0.0247385)"
   style="fill:#4477aa;fill-opacity:1;stroke-width:0.649783">
    <g
   id="use64"
   transform="translate(40.418877,8.0799999)"
   style="fill:#4477aa;fill-opacity:1;stroke-width:0.649783">
      <path
   d="m 0.640625,1.296875 c 0.453125,-0.4375 1.125,-1.046875 1.125,-1.765625 0,-0.5 -0.296875,-0.828125 -0.625,-0.828125 -0.28125,0 -0.4375,0.21875 -0.4375,0.46875 C 0.703125,-0.5 1,-0.34375 1,0.0625 1,0.4375 0.765625,0.796875 0.46875,1.125 Z m 0,0"
   id="path116"
   style="fill:#4477aa;fill-opacity:1;stroke-width:0.649783" />
    </g>
  </g>
  <g
   fill="#000000"
   fill-opacity="1"
   id="g70"
   transform="matrix(0.352778,0,0,0.352778,-0.115755,-0.0247385)"
   style="fill:#4477aa;fill-opacity:1;stroke-width:0.649783">
    <g
   id="use68"
   transform="translate(43.82848,8.0799999)"
   style="fill:#4477aa;fill-opacity:1;stroke-width:0.649783">
      <path
   d="m 2.046875,-5.34375 c 0.25,-0.46875 0.65625,-0.96875 0.84375,-0.96875 0.296875,0 0.328125,0.875 0.390625,1.75 v 0.125 c 0,0.03125 -0.015625,0.0625 -0.03125,0.09375 -0.8125,1.515625 -1.859375,2.953125 -2.921875,4.4375 L 1.140625,0 3.34375,-3.71875 3.484375,-1.140625 c 0.03125,0.65625 0.09375,1.25 0.703125,1.25 0.59375,0 1.125,-0.53125 1.453125,-1.3125 L 5.40625,-1.34375 C 5.171875,-0.859375 4.8125,-0.375 4.609375,-0.375 4.25,-0.375 4.265625,-1.140625 4.21875,-2.09375 L 4.046875,-5.546875 c -0.015625,-0.53125 -0.28125,-1.25 -0.75,-1.25 -0.671875,0 -1.140625,0.546875 -1.46875,1.328125 z m 0,0"
   id="path120"
   style="fill:#4477aa;fill-opacity:1;stroke-width:0.649783" />
    </g>
  </g>
  <g
   fill="#000000"
   fill-opacity="1"
   id="g74"
   transform="matrix(0.352778,0,0,0.352778,-0.115755,-0.0247385)"
   style="fill:#4477aa;fill-opacity:1;stroke-width:0.649783">
    <g
   id="use72"
   transform="translate(49.749458,8.0799999)"
   style="fill:#4477aa;fill-opacity:1;stroke-width:0.649783">
      <path
   d="m 0.640625,1.296875 c 0.453125,-0.4375 1.125,-1.046875 1.125,-1.765625 0,-0.5 -0.296875,-0.828125 -0.625,-0.828125 -0.28125,0 -0.4375,0.21875 -0.4375,0.46875 C 0.703125,-0.5 1,-0.34375 1,0.0625 1,0.4375 0.765625,0.796875 0.46875,1.125 Z m 0,0"
   id="path124"
   style="fill:#4477aa;fill-opacity:1;stroke-width:0.649783" />
    </g>
  </g>
  <g
   fill="#000000"
   fill-opacity="1"
   id="g78"
   transform="matrix(0.352778,0,0,0.352778,-0.115755,-0.0247385)"
   style="fill:#4477aa;fill-opacity:1;stroke-width:0.649783">
    <g
   id="use76"
   transform="translate(53.159061,8.0799999)"
   style="fill:#4477aa;fill-opacity:1;stroke-width:0.649783">
      <path
   d="m 2.546875,-4.546875 c -1.28125,0.359375 -2.25,1.71875 -2.25,3 0,0.890625 0.484375,1.640625 1.640625,1.65625 h 0.015625 c 1.484375,0 2.5,-1.5 2.5,-2.828125 0,-0.5625 -0.15625,-1.109375 -0.484375,-1.484375 -0.578125,-0.65625 -1.703125,-1.28125 -1.703125,-1.671875 0,-0.3125 0.390625,-0.546875 0.71875,-0.546875 0.859375,0 1,0.4375 1.40625,0.828125 0,0.015625 0.015625,0.015625 0.046875,0.015625 0.1875,0 0.6875,-0.234375 0.6875,-0.390625 0,-0.015625 0,-0.046875 -0.03125,-0.0625 -0.703125,-0.59375 -1.109375,-0.859375 -1.6875,-0.859375 -0.78125,0 -1.703125,0.578125 -1.703125,1.296875 0,0.234375 0.140625,0.546875 0.84375,1.046875 z M 2.0625,-0.21875 c -0.625,0 -0.921875,-0.546875 -0.921875,-1.265625 0,-1.078125 0.609375,-2.21875 1.53125,-2.765625 0.03125,-0.015625 0.0625,-0.03125 0.09375,-0.03125 0.125,0 0.265625,0.140625 0.296875,0.171875 0.40625,0.421875 0.5625,0.890625 0.5625,1.40625 0,1.03125 -0.703125,2.484375 -1.5625,2.484375 z m 0,0"
   id="path128"
   style="fill:#4477aa;fill-opacity:1;stroke-width:0.649783" />
    </g>
  </g>
  <g
   fill="#000000"
   fill-opacity="1"
   id="g82"
   transform="matrix(0.352778,0,0,0.352778,-0.115755,-0.0247385)"
   style="fill:#4477aa;fill-opacity:1;stroke-width:0.649783">
    <g
   id="use80"
   transform="translate(58.577,0.36700001)"
   style="fill:#4477aa;fill-opacity:1;stroke-width:0.649783">
      <path
   d="M 2.328125,-0.296875 H 0.71875 v 0.28125 c 0.875,0.046875 1,0.03125 1,1.1875 v 7.875 c 0,1.109375 -0.125,1.15625 -1,1.203125 v 0.265625 h 1.609375 z m 0,0"
   id="path132"
   style="fill:#4477aa;fill-opacity:1;stroke-width:0.649783" />
    </g>
  </g>
</g><g
       transform="matrix(1.5389743,0,0,1.5389743,20.930989,37.646328)"
       id="g6113"
       style="stroke-width:0.649783"><g
   fill="#000000"
   fill-opacity="1"
   id="g6099"
   transform="matrix(0.352778,0,0,0.352778,-0.363802,-0.00268993)"
   style="stroke-width:0.422219">
    <g
   id="use21"
   transform="translate(0,0.36700001)"
   style="stroke-width:0.649783">
      <path
   d="m 3.265625,10.390625 c -1.265625,-0.546875 -1.5,-2.671875 -1.5,-5.25 0,-2.53125 0.203125,-4.703125 1.5,-5.265625 v -0.234375 c -1.8125,0.359375 -2.234375,2.375 -2.234375,5.5 0,3.046875 0.359375,5.15625 2.234375,5.5 z m 0,0"
   id="path45"
   style="stroke-width:0.649783" />
    </g>
  </g>
  <g
   fill="#000000"
   fill-opacity="1"
   id="g27"
   transform="matrix(0.352778,0,0,0.352778,-0.363802,-0.00268993)"
   style="stroke-width:0.422219">
    <g
   id="use25"
   transform="translate(3.556,8.0799999)"
   style="stroke-width:0.649783">
      <path
   d="m 4.578125,-3.34375 c 0.109375,-0.53125 0.1875,-1.09375 0.1875,-1.609375 0,-1.015625 -0.328125,-1.859375 -1.46875,-1.859375 -2.203125,0 -3,3.28125 -3,5.109375 0,1.046875 0.359375,1.828125 1.484375,1.828125 1.6875,0 2.40625,-1.703125 2.796875,-3.46875 z M 3.734375,-3.609375 H 1.453125 C 1.609375,-4.390625 2.125,-6.5 3.21875,-6.5 c 0.578125,0 0.75,0.5625 0.75,1.21875 0,0.609375 -0.140625,1.28125 -0.234375,1.671875 z m -0.0625,0.328125 c -0.234375,1.078125 -0.75,3.125 -1.828125,3.125 -0.5625,0 -0.71875,-0.546875 -0.71875,-1.21875 0,-0.640625 0.140625,-1.390625 0.25,-1.90625 z m 0,0"
   id="path49"
   style="stroke-width:0.649783" />
    </g>
  </g>
  <g
   fill="#000000"
   fill-opacity="1"
   id="g31"
   transform="matrix(0.352778,0,0,0.352778,-0.363802,-0.00268993)"
   style="stroke-width:0.422219">
    <g
   id="use29"
   transform="translate(8.9453726,8.0799999)"
   style="stroke-width:0.649783">
      <path
   d="m 0.640625,1.296875 c 0.453125,-0.4375 1.125,-1.046875 1.125,-1.765625 0,-0.5 -0.296875,-0.828125 -0.625,-0.828125 -0.28125,0 -0.4375,0.21875 -0.4375,0.46875 C 0.703125,-0.5 1,-0.34375 1,0.0625 1,0.4375 0.765625,0.796875 0.46875,1.125 Z m 0,0"
   id="path53"
   style="stroke-width:0.649783" />
    </g>
  </g>
  <g
   fill="#000000"
   fill-opacity="1"
   id="g35"
   transform="matrix(0.352778,0,0,0.352778,-0.363802,-0.00268993)"
   style="stroke-width:0.422219">
    <g
   id="use33"
   transform="translate(12.354976,8.0799999)"
   style="stroke-width:0.649783">
      <path
   d="M 2.75,1.96875 3.15625,0.109375 c 1.796875,-0.09375 3.046875,-1.625 3.046875,-3.25 0,-1.15625 -0.703125,-1.46875 -1.53125,-1.46875 -0.78125,0 -1.5,0.921875 -1.734375,1.9375 C 2.75,-1.828125 2.546875,-0.9375 2.40625,-0.25 1.53125,-0.3125 1.25,-0.78125 1.25,-1.453125 1.25,-2.4375 1.53125,-3.4375 2.3125,-4.328125 L 2.328125,-4.3125 c 0,-0.078125 -0.046875,-0.203125 -0.09375,-0.203125 H 2.21875 c -1.28125,0.6875 -1.828125,1.59375 -1.828125,2.734375 0,1.078125 0.84375,1.828125 1.9375,1.890625 L 1.875,2.21875 Z m 0.46875,-2.1875 0.5625,-2.609375 c 0.140625,-0.59375 0.421875,-1.453125 0.984375,-1.453125 0.4375,0 0.546875,0.484375 0.546875,1 0,1.390625 -0.546875,3.03125 -2.09375,3.0625 z m 0,0"
   id="path57"
   style="stroke-width:0.649783" />
    </g>
  </g>
  <g
   fill="#000000"
   fill-opacity="1"
   id="g39"
   transform="matrix(0.352778,0,0,0.352778,-0.363802,-0.00268993)"
   style="stroke-width:0.422219">
    <g
   id="use37"
   transform="translate(18.936001,0.36700001)"
   style="stroke-width:0.649783">
      <path
   d="m 0.296875,10.640625 c 1.75,-0.3125 2.234375,-2.453125 2.234375,-5.5 0,-3.125 -0.484375,-5.171875 -2.234375,-5.5 V -0.125 c 1.296875,0.5625 1.5,2.734375 1.5,5.265625 0,2.578125 -0.234375,4.703125 -1.5,5.25 z m 0,0"
   id="path61"
   style="stroke-width:0.649783" />
    </g>
  </g>
</g></g></svg>
